<mxfile host="app.diagrams.net" agent="Mozilla/5.0 (Windows NT 10.0; Win64; x64) AppleWebKit/537.36 (KHTML, like Gecko) Chrome/128.0.0.0 Safari/537.36" version="24.7.8">
  <diagram id="C5RBs43oDa-KdzZeNtuy" name="Page-1">
    <mxGraphModel dx="1000" dy="505" grid="1" gridSize="10" guides="1" tooltips="1" connect="1" arrows="1" fold="1" page="1" pageScale="1" pageWidth="827" pageHeight="1169" math="0" shadow="0">
      <root>
        <mxCell id="WIyWlLk6GJQsqaUBKTNV-0" />
        <mxCell id="WIyWlLk6GJQsqaUBKTNV-1" parent="WIyWlLk6GJQsqaUBKTNV-0" />
        <mxCell id="RsgNohvlrb6G9urcGac4-10" style="edgeStyle=orthogonalEdgeStyle;rounded=0;orthogonalLoop=1;jettySize=auto;html=1;entryX=1;entryY=0.5;entryDx=0;entryDy=0;" edge="1" parent="WIyWlLk6GJQsqaUBKTNV-1" source="Xkn-Jh1VXbyhxHW6k7pF-0" target="RsgNohvlrb6G9urcGac4-3">
          <mxGeometry relative="1" as="geometry">
            <mxPoint x="415" y="1010" as="targetPoint" />
            <Array as="points">
              <mxPoint x="411" y="950" />
              <mxPoint x="341" y="950" />
            </Array>
          </mxGeometry>
        </mxCell>
        <mxCell id="RsgNohvlrb6G9urcGac4-31" style="edgeStyle=orthogonalEdgeStyle;rounded=0;orthogonalLoop=1;jettySize=auto;html=1;entryX=0.5;entryY=1;entryDx=0;entryDy=0;" edge="1" parent="WIyWlLk6GJQsqaUBKTNV-1" source="Xkn-Jh1VXbyhxHW6k7pF-0" target="RsgNohvlrb6G9urcGac4-30">
          <mxGeometry relative="1" as="geometry" />
        </mxCell>
        <mxCell id="RsgNohvlrb6G9urcGac4-50" style="edgeStyle=orthogonalEdgeStyle;rounded=0;orthogonalLoop=1;jettySize=auto;html=1;entryX=0.5;entryY=1;entryDx=0;entryDy=0;" edge="1" parent="WIyWlLk6GJQsqaUBKTNV-1" source="Xkn-Jh1VXbyhxHW6k7pF-0" target="RsgNohvlrb6G9urcGac4-49">
          <mxGeometry relative="1" as="geometry" />
        </mxCell>
        <mxCell id="Xkn-Jh1VXbyhxHW6k7pF-0" value="CIUDA&lt;span style=&quot;background-color: initial;&quot;&gt;DES_USA&lt;/span&gt;" style="rounded=0;whiteSpace=wrap;html=1;fillColor=#ffe6cc;strokeColor=#d79b00;" parent="WIyWlLk6GJQsqaUBKTNV-1" vertex="1">
          <mxGeometry x="351" y="700" width="124" height="40" as="geometry" />
        </mxCell>
        <mxCell id="RsgNohvlrb6G9urcGac4-16" style="edgeStyle=orthogonalEdgeStyle;rounded=0;orthogonalLoop=1;jettySize=auto;html=1;entryX=0;entryY=0.5;entryDx=0;entryDy=0;" edge="1" parent="WIyWlLk6GJQsqaUBKTNV-1" source="RsgNohvlrb6G9urcGac4-1" target="RsgNohvlrb6G9urcGac4-4">
          <mxGeometry relative="1" as="geometry">
            <mxPoint x="471" y="780" as="targetPoint" />
          </mxGeometry>
        </mxCell>
        <mxCell id="RsgNohvlrb6G9urcGac4-1" value="ID_CIUDAD_ESTADO" style="ellipse;whiteSpace=wrap;html=1;fillColor=#d5e8d4;strokeColor=#82b366;" vertex="1" parent="WIyWlLk6GJQsqaUBKTNV-1">
          <mxGeometry x="271" y="750" width="100" height="70" as="geometry" />
        </mxCell>
        <mxCell id="RsgNohvlrb6G9urcGac4-14" style="edgeStyle=orthogonalEdgeStyle;rounded=0;orthogonalLoop=1;jettySize=auto;html=1;entryX=0;entryY=0.5;entryDx=0;entryDy=0;" edge="1" parent="WIyWlLk6GJQsqaUBKTNV-1" source="RsgNohvlrb6G9urcGac4-2" target="RsgNohvlrb6G9urcGac4-5">
          <mxGeometry relative="1" as="geometry" />
        </mxCell>
        <mxCell id="RsgNohvlrb6G9urcGac4-2" value="CIUDAD" style="ellipse;whiteSpace=wrap;html=1;" vertex="1" parent="WIyWlLk6GJQsqaUBKTNV-1">
          <mxGeometry x="271" y="830" width="100" height="70" as="geometry" />
        </mxCell>
        <mxCell id="RsgNohvlrb6G9urcGac4-3" value="ID_ESTADO" style="ellipse;whiteSpace=wrap;html=1;fillColor=#e1d5e7;strokeColor=#9673a6;" vertex="1" parent="WIyWlLk6GJQsqaUBKTNV-1">
          <mxGeometry x="271" y="910" width="100" height="70" as="geometry" />
        </mxCell>
        <mxCell id="RsgNohvlrb6G9urcGac4-17" style="edgeStyle=orthogonalEdgeStyle;rounded=0;orthogonalLoop=1;jettySize=auto;html=1;entryX=1;entryY=0.5;entryDx=0;entryDy=0;" edge="1" parent="WIyWlLk6GJQsqaUBKTNV-1" source="RsgNohvlrb6G9urcGac4-4" target="RsgNohvlrb6G9urcGac4-1">
          <mxGeometry relative="1" as="geometry" />
        </mxCell>
        <mxCell id="RsgNohvlrb6G9urcGac4-4" value="AREA" style="ellipse;whiteSpace=wrap;html=1;" vertex="1" parent="WIyWlLk6GJQsqaUBKTNV-1">
          <mxGeometry x="451" y="749.5" width="104" height="70" as="geometry" />
        </mxCell>
        <mxCell id="RsgNohvlrb6G9urcGac4-15" style="edgeStyle=orthogonalEdgeStyle;rounded=0;orthogonalLoop=1;jettySize=auto;html=1;entryX=1;entryY=0.5;entryDx=0;entryDy=0;" edge="1" parent="WIyWlLk6GJQsqaUBKTNV-1" source="RsgNohvlrb6G9urcGac4-5" target="RsgNohvlrb6G9urcGac4-2">
          <mxGeometry relative="1" as="geometry">
            <mxPoint x="341" y="900" as="targetPoint" />
          </mxGeometry>
        </mxCell>
        <mxCell id="RsgNohvlrb6G9urcGac4-5" value="UBICACION" style="ellipse;whiteSpace=wrap;html=1;" vertex="1" parent="WIyWlLk6GJQsqaUBKTNV-1">
          <mxGeometry x="456" y="830" width="94" height="70" as="geometry" />
        </mxCell>
        <mxCell id="RsgNohvlrb6G9urcGac4-18" value="" style="whiteSpace=wrap;html=1;aspect=fixed;fillColor=#d5e8d4;strokeColor=#82b366;" vertex="1" parent="WIyWlLk6GJQsqaUBKTNV-1">
          <mxGeometry x="700" y="1020" width="30" height="30" as="geometry" />
        </mxCell>
        <mxCell id="RsgNohvlrb6G9urcGac4-20" value="PK" style="text;html=1;align=center;verticalAlign=middle;whiteSpace=wrap;rounded=0;" vertex="1" parent="WIyWlLk6GJQsqaUBKTNV-1">
          <mxGeometry x="740" y="1020" width="60" height="30" as="geometry" />
        </mxCell>
        <mxCell id="RsgNohvlrb6G9urcGac4-23" value="" style="whiteSpace=wrap;html=1;aspect=fixed;fillColor=#e1d5e7;strokeColor=#9673a6;direction=south;" vertex="1" parent="WIyWlLk6GJQsqaUBKTNV-1">
          <mxGeometry x="700" y="1080" width="30" height="30" as="geometry" />
        </mxCell>
        <mxCell id="RsgNohvlrb6G9urcGac4-24" value="FK" style="text;html=1;align=center;verticalAlign=middle;whiteSpace=wrap;rounded=0;" vertex="1" parent="WIyWlLk6GJQsqaUBKTNV-1">
          <mxGeometry x="740" y="1080" width="60" height="30" as="geometry" />
        </mxCell>
        <mxCell id="RsgNohvlrb6G9urcGac4-28" style="edgeStyle=orthogonalEdgeStyle;rounded=0;orthogonalLoop=1;jettySize=auto;html=1;entryX=0.5;entryY=1;entryDx=0;entryDy=0;" edge="1" parent="WIyWlLk6GJQsqaUBKTNV-1" source="RsgNohvlrb6G9urcGac4-25" target="RsgNohvlrb6G9urcGac4-26">
          <mxGeometry relative="1" as="geometry" />
        </mxCell>
        <mxCell id="RsgNohvlrb6G9urcGac4-25" value="ESTADOS" style="rounded=0;whiteSpace=wrap;html=1;fillColor=#ffe6cc;strokeColor=#d79b00;" vertex="1" parent="WIyWlLk6GJQsqaUBKTNV-1">
          <mxGeometry x="570" y="450" width="80" height="40" as="geometry" />
        </mxCell>
        <mxCell id="RsgNohvlrb6G9urcGac4-29" style="edgeStyle=orthogonalEdgeStyle;rounded=0;orthogonalLoop=1;jettySize=auto;html=1;entryX=0.5;entryY=0;entryDx=0;entryDy=0;" edge="1" parent="WIyWlLk6GJQsqaUBKTNV-1" source="RsgNohvlrb6G9urcGac4-26" target="RsgNohvlrb6G9urcGac4-27">
          <mxGeometry relative="1" as="geometry" />
        </mxCell>
        <mxCell id="RsgNohvlrb6G9urcGac4-26" value="ID_ESTADO" style="ellipse;whiteSpace=wrap;html=1;fillColor=#d5e8d4;strokeColor=#82b366;" vertex="1" parent="WIyWlLk6GJQsqaUBKTNV-1">
          <mxGeometry x="690" y="390" width="80" height="50" as="geometry" />
        </mxCell>
        <mxCell id="RsgNohvlrb6G9urcGac4-27" value="ESTADOS" style="ellipse;whiteSpace=wrap;html=1;" vertex="1" parent="WIyWlLk6GJQsqaUBKTNV-1">
          <mxGeometry x="690" y="490" width="80" height="50" as="geometry" />
        </mxCell>
        <mxCell id="RsgNohvlrb6G9urcGac4-32" style="edgeStyle=orthogonalEdgeStyle;rounded=0;orthogonalLoop=1;jettySize=auto;html=1;entryX=0;entryY=0.5;entryDx=0;entryDy=0;" edge="1" parent="WIyWlLk6GJQsqaUBKTNV-1" source="RsgNohvlrb6G9urcGac4-30" target="RsgNohvlrb6G9urcGac4-25">
          <mxGeometry relative="1" as="geometry" />
        </mxCell>
        <mxCell id="RsgNohvlrb6G9urcGac4-30" value="PERTENECE" style="rhombus;whiteSpace=wrap;html=1;fontSize=7;fillColor=#ffff88;strokeColor=#36393d;" vertex="1" parent="WIyWlLk6GJQsqaUBKTNV-1">
          <mxGeometry x="520" y="570" width="60" height="60" as="geometry" />
        </mxCell>
        <mxCell id="RsgNohvlrb6G9urcGac4-33" value="N:1" style="text;html=1;align=center;verticalAlign=middle;whiteSpace=wrap;rounded=0;" vertex="1" parent="WIyWlLk6GJQsqaUBKTNV-1">
          <mxGeometry x="480" y="690" width="60" height="30" as="geometry" />
        </mxCell>
        <mxCell id="RsgNohvlrb6G9urcGac4-40" style="edgeStyle=orthogonalEdgeStyle;rounded=0;orthogonalLoop=1;jettySize=auto;html=1;entryX=1;entryY=0.5;entryDx=0;entryDy=0;" edge="1" parent="WIyWlLk6GJQsqaUBKTNV-1" source="RsgNohvlrb6G9urcGac4-34" target="RsgNohvlrb6G9urcGac4-36">
          <mxGeometry relative="1" as="geometry" />
        </mxCell>
        <mxCell id="RsgNohvlrb6G9urcGac4-41" style="edgeStyle=orthogonalEdgeStyle;rounded=0;orthogonalLoop=1;jettySize=auto;html=1;entryX=1;entryY=0.5;entryDx=0;entryDy=0;" edge="1" parent="WIyWlLk6GJQsqaUBKTNV-1" source="RsgNohvlrb6G9urcGac4-34" target="RsgNohvlrb6G9urcGac4-35">
          <mxGeometry relative="1" as="geometry" />
        </mxCell>
        <mxCell id="RsgNohvlrb6G9urcGac4-46" style="edgeStyle=orthogonalEdgeStyle;rounded=0;orthogonalLoop=1;jettySize=auto;html=1;entryX=1;entryY=0.5;entryDx=0;entryDy=0;" edge="1" parent="WIyWlLk6GJQsqaUBKTNV-1" source="RsgNohvlrb6G9urcGac4-34" target="RsgNohvlrb6G9urcGac4-37">
          <mxGeometry relative="1" as="geometry">
            <Array as="points">
              <mxPoint x="130" y="559" />
              <mxPoint x="130" y="625" />
            </Array>
          </mxGeometry>
        </mxCell>
        <mxCell id="RsgNohvlrb6G9urcGac4-47" style="edgeStyle=orthogonalEdgeStyle;rounded=0;orthogonalLoop=1;jettySize=auto;html=1;entryX=1;entryY=0.5;entryDx=0;entryDy=0;" edge="1" parent="WIyWlLk6GJQsqaUBKTNV-1" source="RsgNohvlrb6G9urcGac4-34" target="RsgNohvlrb6G9urcGac4-38">
          <mxGeometry relative="1" as="geometry" />
        </mxCell>
        <mxCell id="RsgNohvlrb6G9urcGac4-48" style="edgeStyle=orthogonalEdgeStyle;rounded=0;orthogonalLoop=1;jettySize=auto;html=1;entryX=1;entryY=0.5;entryDx=0;entryDy=0;" edge="1" parent="WIyWlLk6GJQsqaUBKTNV-1" source="RsgNohvlrb6G9urcGac4-34" target="RsgNohvlrb6G9urcGac4-39">
          <mxGeometry relative="1" as="geometry" />
        </mxCell>
        <mxCell id="RsgNohvlrb6G9urcGac4-34" value="DATOS_CENSO" style="rounded=0;whiteSpace=wrap;html=1;fontSize=10;fillColor=#ffe6cc;strokeColor=#d79b00;" vertex="1" parent="WIyWlLk6GJQsqaUBKTNV-1">
          <mxGeometry x="150" y="539" width="91" height="40" as="geometry" />
        </mxCell>
        <mxCell id="RsgNohvlrb6G9urcGac4-35" value="2020_RANK" style="ellipse;whiteSpace=wrap;html=1;fontSize=10;fillColor=#d5e8d4;strokeColor=#82b366;" vertex="1" parent="WIyWlLk6GJQsqaUBKTNV-1">
          <mxGeometry x="30" y="470" width="80" height="50" as="geometry" />
        </mxCell>
        <mxCell id="RsgNohvlrb6G9urcGac4-36" value="ID_CIUDAD_ESTADO" style="ellipse;whiteSpace=wrap;html=1;fontSize=6;fillColor=#e1d5e7;strokeColor=#9673a6;" vertex="1" parent="WIyWlLk6GJQsqaUBKTNV-1">
          <mxGeometry x="30" y="534" width="80" height="50" as="geometry" />
        </mxCell>
        <mxCell id="RsgNohvlrb6G9urcGac4-42" style="edgeStyle=orthogonalEdgeStyle;rounded=0;orthogonalLoop=1;jettySize=auto;html=1;exitX=1;exitY=0.5;exitDx=0;exitDy=0;" edge="1" parent="WIyWlLk6GJQsqaUBKTNV-1" source="RsgNohvlrb6G9urcGac4-37">
          <mxGeometry relative="1" as="geometry">
            <mxPoint x="110.47619047619037" y="625.4761904761904" as="targetPoint" />
          </mxGeometry>
        </mxCell>
        <mxCell id="RsgNohvlrb6G9urcGac4-37" value="2020_CENSO" style="ellipse;whiteSpace=wrap;html=1;fontSize=10;" vertex="1" parent="WIyWlLk6GJQsqaUBKTNV-1">
          <mxGeometry x="30" y="600" width="80" height="50" as="geometry" />
        </mxCell>
        <mxCell id="RsgNohvlrb6G9urcGac4-38" value="2010_CENSO" style="ellipse;whiteSpace=wrap;html=1;fontSize=10;" vertex="1" parent="WIyWlLk6GJQsqaUBKTNV-1">
          <mxGeometry x="30" y="660" width="80" height="50" as="geometry" />
        </mxCell>
        <mxCell id="RsgNohvlrb6G9urcGac4-39" value="VARIACION" style="ellipse;whiteSpace=wrap;html=1;fontSize=10;" vertex="1" parent="WIyWlLk6GJQsqaUBKTNV-1">
          <mxGeometry x="30" y="720" width="80" height="50" as="geometry" />
        </mxCell>
        <mxCell id="RsgNohvlrb6G9urcGac4-51" style="edgeStyle=orthogonalEdgeStyle;rounded=0;orthogonalLoop=1;jettySize=auto;html=1;entryX=1;entryY=0.5;entryDx=0;entryDy=0;" edge="1" parent="WIyWlLk6GJQsqaUBKTNV-1" source="RsgNohvlrb6G9urcGac4-49" target="RsgNohvlrb6G9urcGac4-34">
          <mxGeometry relative="1" as="geometry" />
        </mxCell>
        <mxCell id="RsgNohvlrb6G9urcGac4-49" value="PERTENECE" style="rhombus;whiteSpace=wrap;html=1;fontSize=7;fillColor=#ffff88;strokeColor=#36393d;" vertex="1" parent="WIyWlLk6GJQsqaUBKTNV-1">
          <mxGeometry x="280" y="570" width="60" height="60" as="geometry" />
        </mxCell>
        <mxCell id="RsgNohvlrb6G9urcGac4-52" value="1:1" style="text;html=1;align=center;verticalAlign=middle;whiteSpace=wrap;rounded=0;rotation=90;" vertex="1" parent="WIyWlLk6GJQsqaUBKTNV-1">
          <mxGeometry x="291" y="670" width="60" height="30" as="geometry" />
        </mxCell>
      </root>
    </mxGraphModel>
  </diagram>
</mxfile>
